<svg width="16" height="16" xmlns="http://www.w3.org/2000/svg" fill="currentColor" viewBox="0 0 16 16">
  <path d="M7.62 2.14h-.07c-.47 0-.93.08-1.35.26-.37.15-.69.38-.95.7-.25.27-.45.59-.58.94-.12.36-.2.73-.23 1.1h1.88c.02-.5.32-.93.77-1.13.14-.06.25-.1.46-.12.18 0 .28.01.42.04.13.05.25.12.34.22.1.09.2.2.25.33.06.15.09.3.09.46 0 .26-.06.52-.15.77-.12.25-.26.49-.43.7l-.54.65-.54.6c-.16.23-.3.46-.4.71-.11.24-.17.5-.16.77v1h1.84V9.4c0-.22.05-.44.15-.64.13-.23.29-.44.46-.63l.53-.68c.2-.22.39-.46.55-.72.18-.26.32-.54.43-.84a3.34 3.34 0 00.02-2c-.12-.32-.3-.6-.54-.85-.26-.27-.58-.49-.93-.64a3.44 3.44 0 00-1.32-.26zm-1.2 8.93v1.79h1.8v-1.8z"/>
</svg>
