<svg width="16" height="16" xmlns="http://www.w3.org/2000/svg" fill="currentColor" viewBox="0 0 16 16">
  <path d="M7.58 4a2.25 2.25 0 00-.05 0 2.16 2.16 0 00-.88.17c-.24.1-.45.25-.62.45a1.89 1.89 0 00-.38.62 3 3 0 00-.15.72h1.23a.84.84 0 01.5-.74.72.72 0 01.3-.05.86.86 0 01.28 0 .64.64 0 01.22.14.6.6 0 01.16.22.73.73 0 01.06.3c0 .17-.04.34-.1.5a2.4 2.4 0 01-.28.46l-.35.42-.35.4a2.33 2.33 0 00-.27.46 1.18 1.18 0 00-.1.5v.66H8v-.49a.94.94 0 01.1-.42 3.09 3.09 0 01.3-.41l.35-.44A4.29 4.29 0 009.11 7a2.59 2.59 0 00.28-.55 1.91 1.91 0 00.11-.64 2.18 2.18 0 00-.1-.67 1.52 1.52 0 00-.35-.55 1.84 1.84 0 00-.61-.42A2.25 2.25 0 007.58 4zM6.8 9.83V11h1.17V9.83H6.8z"/>
</svg>
